<svg width="67" height="67" viewBox="0 0 67 67" fill="none" xmlns="http://www.w3.org/2000/svg">
<g clip-path="url(#clip0_31_14)">
<mask id="mask0_31_14" style="mask-type:luminance" maskUnits="userSpaceOnUse" x="0" y="0" width="67" height="67">
<path d="M66.5625 0H0V66.5625H66.5625V0Z" fill="white"/>
</mask>
<g mask="url(#mask0_31_14)">
<path fill-rule="evenodd" clip-rule="evenodd" d="M43.9765 54.76C40.7469 60.1429 36.8413 62.5687 33.2812 62.5687C29.721 62.5687 25.8155 60.1429 22.5858 54.76C19.4038 49.4566 17.3062 41.8721 17.3062 33.2812C17.3062 24.6903 19.4038 17.106 22.5858 11.8026C25.8155 6.41979 29.721 3.99375 33.2812 3.99375C36.8413 3.99375 40.7469 6.41979 43.9765 11.8026C47.1585 17.106 49.2562 24.6903 49.2562 33.2812C49.2562 41.8721 47.1585 49.4566 43.9765 54.76ZM66.5625 33.2812C66.5625 14.9005 51.6618 0 33.2812 0C14.9005 0 0 14.9005 0 33.2812C0 51.6618 14.9005 66.5625 33.2812 66.5625C51.6618 66.5625 66.5625 51.6618 66.5625 33.2812ZM3.99375 33.2812C3.99375 45.2392 11.1601 55.5231 21.4322 60.0727C16.5069 54.0118 13.3125 44.2684 13.3125 33.2812C13.3125 22.2942 16.5069 12.5506 21.4322 6.48968C11.1601 11.0394 3.99375 21.3234 3.99375 33.2812ZM62.5687 33.2812C62.5687 45.2392 55.4023 55.5231 45.1304 60.0727C50.0557 54.0118 53.25 44.2684 53.25 33.2812C53.25 22.2942 50.0557 12.5506 45.1304 6.48968C55.4023 11.0394 62.5687 21.3234 62.5687 33.2812ZM33.2812 36.9422C35.3031 36.9422 36.9422 35.3031 36.9422 33.2812C36.9422 31.2594 35.3031 29.6203 33.2812 29.6203C31.2594 29.6203 29.6203 31.2594 29.6203 33.2812C29.6203 35.3031 31.2594 36.9422 33.2812 36.9422Z" fill="white"/>
</g>
</g>
<path d="M29.5958 26L31.8166 14.2429H34.7777L36.9694 26H34.5745L34.1826 23.5179H32.4553L32.0489 26H29.5958ZM32.6875 21.9648H33.9358L33.3117 17.3781L32.6875 21.9648Z" fill="white"/>
<path d="M29.8412 52V40.2429H32.4394V45.0038H34.2683V40.2429H36.8664V52H34.2683V46.8617H32.4394V52H29.8412Z" fill="white"/>
<defs>
<clipPath id="clip0_31_14">
<rect width="66.5625" height="66.5625" fill="white"/>
</clipPath>
</defs>
</svg>
